:SAMPLES-PER-SECOND 30
:FRAME-RANGE 1-2091
:FULLY-SPECIFIED
:DEGREES
523
root  28.2438 39.024 -54.3492 177.802 -25.9711 -172.625
RightUpLeg  -23.8305 12.486 -4.24834
RightLeg  30.1798 -7.6217 -4.99142
RightFoot  -5.5182 -0.145135 2.11523
RightToes  5.38607e-012 1.2921e-014 -6.02303e-014
Spine  -5.6148 -3.7804 -2.98079
Spine1  7.48053 -4.43856 1.55323
HEad  9.0839 49.7655 -8.86132
LeftShoulder1  1.25586 -1.52647 -19.762
LeftArm  13.4791 -6.11044 -66.7298
LeftForeArm  29.4046 -9.84267 -11.9438
LeftHand  -0.0579329 4.50897 5.02029
RightShoulder  1.04154 -0.248064 27.99
RightArm  -27.9518 -15.9069 43.9906
RightForeArm  62.9781 -5.47896 2.99218
RightHand  0.120491 -6.46127 -14.9805
LeftUpLeg  1.40281 -3.4582 -7.40424
LeftLeg  16.9377 -1.07003 2.42517
LeftFoot  -15.8624 0.633468 13.5531
LeftToes  -7.20997e-011 3.75522e-011 -2.80735e-011
524
root  27.9037 39.0677 -55.325 178.307 -28.4215 -172.41
RightUpLeg  -24.1562 10.1281 -3.26965
RightLeg  19.8615 -4.39915 -1.96689
RightFoot  -4.59702 -0.312778 4.77321
RightToes  5.38607e-012 1.2921e-014 -6.02303e-014
Spine  -5.93236 -3.78403 -2.36134
Spine1  7.54809 -4.29836 1.52116
HEad  8.15557 49.0692 -9.90835
LeftShoulder1  1.26303 -1.56652 -19.6908
LeftArm  16.7336 -5.66495 -67.2003
LeftForeArm  26.1779 -11.976 -11.0809
LeftHand  -0.0959942 3.63336 5.32533
RightShoulder  1.08599 -0.113133 27.9522
RightArm  -28.2261 -15.5961 43.9606
RightForeArm  63.8016 -5.41908 2.80963
RightHand  0.102661 -6.32821 -14.8766
LeftUpLeg  2.82008 -3.1097 -6.52314
LeftLeg  16.0417 -3.80611 1.48126
LeftFoot  -15.903 0.634798 13.4605
LeftToes  -7.20997e-011 3.75522e-011 -2.80735e-011
525
root  27.4979 39.0243 -56.353 178.867 -30.0314 -172.699
RightUpLeg  -23.8036 3.92778 -0.579996
RightLeg  10.362 1.79286 -0.250205
RightFoot  -5.59375 -0.45467 8.28307
RightToes  5.38607e-012 1.2921e-014 -6.02303e-014
Spine  -6.26651 -3.60543 -1.84513
Spine1  7.61361 -3.92221 1.06384
HEad  7.25437 48.6886 -11.1408
LeftShoulder1  1.26195 -1.45485 -20.2323
LeftArm  19.6296 -5.31105 -66.6327
LeftForeArm  22.0126 -13.6541 -10.3052
LeftHand  -0.0726076 4.3867 6.30959
RightShoulder  1.14306 0.0845719 27.6552
RightArm  -28.3782 -15.3533 44.0764
RightForeArm  64.0117 -5.39593 2.7165
RightHand  0.116027 -6.42858 -14.9491
LeftUpLeg  4.32434 -2.89545 -6.3416
LeftLeg  15.6766 -5.34924 1.04538
LeftFoot  -16.1401 0.65089 13.1462
LeftToes  -7.20997e-011 3.75522e-011 -2.80735e-011
526
root  27.0188 38.9413 -57.4438 179.024 -31.5136 -172.952
RightUpLeg  -22.9344 1.51793 0.801104
RightLeg  2.61416 3.9156 1.03789
RightFoot  -6.80688 -0.497276 11.3515
RightToes  5.38607e-012 1.2921e-014 -6.02303e-014
Spine  -6.73202 -3.42074 -1.18309
Spine1  8.06905 -3.60956 0.571663
HEad  6.9509 48.6485 -12.2646
LeftShoulder1  1.25732 -1.37072 -20.7222
LeftArm  19.2154 -5.08166 -65.855
LeftForeArm  20.1447 -14.2837 -9.86881
LeftHand  -0.0644108 4.50319 5.95281
RightShoulder  1.1049 -0.0252196 27.6105
RightArm  -28.4294 -14.7491 43.8393
RightForeArm  63.8342 -5.38653 2.62258
RightHand  0.144821 -6.62872 -15.2394
LeftUpLeg  6.12805 -3.31601 -6.27707
LeftLeg  15.8297 -6.21902 0.731087
LeftFoot  -16.3289 0.638518 12.347
LeftToes  -7.20997e-011 3.75522e-011 -2.80735e-011
527
root  26.4581 38.7618 -58.5881 179.151 -33.1313 -173.646
RightUpLeg  -22.4045 2.10052 1.2221
RightLeg  -0.0182809 3.61334 0.96489
RightFoot  -9.36386 -0.276333 12.2659
RightToes  5.38607e-012 1.2921e-014 -6.02303e-014
Spine  -7.08592 -3.39147 -1.15188
Spine1  8.25778 -3.54224 0.441785
HEad  7.70822 49.2264 -12.7494
LeftShoulder1  1.25034 -1.29719 -21.0186
LeftArm  16.646 -4.98107 -65.0709
LeftForeArm  19.3797 -13.7144 -10.0842
LeftHand  -0.0850981 2.96857 3.42709
RightShoulder  1.08333 -0.0871968 27.583
RightArm  -27.8351 -14.28 43.0677
RightForeArm  63.2465 -5.44465 2.8441
RightHand  0.129113 -6.5098 -15.2064
LeftUpLeg  7.82061 -4.5354 -6.71816
LeftLeg  17.1836 -6.36295 0.0480683
LeftFoot  -16.6225 0.629848 11.4421
LeftToes  -7.20997e-011 3.75522e-011 -2.80735e-011
528
root  25.8036 38.5152 -59.7656 179.209 -34.5693 -174.408
RightUpLeg  -22.7011 1.86365 1.7433
RightLeg  3.80454 4.16947 1.28071
RightFoot  -10.017 -0.205123 11.7984
RightToes  5.38607e-012 1.2921e-014 -6.02303e-014
Spine  -7.51787 -3.3803 -0.775635
Spine1  8.49195 -3.51881 0.132374
HEad  9.52152 50.0088 -12.5906
LeftShoulder1  1.22369 -1.16234 -21.2563
LeftArm  12.8304 -4.57866 -64.2259
LeftForeArm  18.1144 -13.2259 -10.1134
LeftHand  -0.0899628 2.67283 3.32246
RightShoulder  1.09968 0.0086396 27.0899
RightArm  -27.8018 -14.2746 42.7037
RightForeArm  62.5962 -4.68758 2.9695
RightHand  0.173453 -6.84012 -15.3358
LeftUpLeg  9.32124 -6.569 -7.42591
LeftLeg  19.4345 -5.56956 -0.90982
LeftFoot  -16.714 0.587785 10.3499
LeftToes  -7.20997e-011 3.75522e-011 -2.80735e-011
529
root  25.1002 38.548 -60.8553 178.413 -36.7643 -173.938
RightUpLeg  -22.6748 3.09548 2.51211
RightLeg  7.99609 5.09448 0.526132
RightFoot  -5.49158 -0.405338 7.19093
RightToes  5.38607e-012 1.2921e-014 -6.02303e-014
Spine  -7.68821 -3.53837 0.994147
Spine1  8.89903 -3.94508 0.505629
HEad  11.6315 50.8096 -12.3831
LeftShoulder1  1.2336 -1.12731 -21.7248
LeftArm  9.13427 -3.68036 -63.095
LeftForeArm  16.1607 -13.6231 -9.56306
LeftHand  -0.103976 2.12904 3.36623
RightShoulder  0.904935 -0.566987 26.8916
RightArm  -26.7748 -13.8877 41.7088
RightForeArm  61.3146 -4.15493 3.50467
RightHand  0.188913 -6.92878 -15.6035
LeftUpLeg  11.1849 -8.96024 -7.07837
LeftLeg  20.6692 -5.44059 -1.93044
LeftFoot  -14.8015 0.347991 8.55254
LeftToes  -7.20997e-011 3.75522e-011 -2.80735e-011
530
root  24.3545 38.5807 -61.9253 176.846 -39.3032 -172.198
RightUpLeg  -22.559 4.90084 3.26728
RightLeg  11.5199 2.69535 -0.435577
RightFoot  0.208956 -0.861972 8.52149
RightToes  5.38607e-012 1.2921e-014 -6.02303e-014
Spine  -7.8059 -3.73402 3.82002
Spine1  9.06709 -4.42906 1.10326
HEad  13.605 51.3583 -12.5642
LeftShoulder1  1.22414 -0.935572 -22.8222
LeftArm  6.96734 -3.59714 -61.6422
LeftForeArm  11.9856 -13.7456 -9.4022
LeftHand  -0.127316 1.87542 3.94819
RightShoulder  0.826025 -0.81469 26.9847
RightArm  -26.0048 -13.8013 40.2178
RightForeArm  60.1894 -3.70237 3.89034
RightHand  0.161909 -6.68787 -15.9923
LeftUpLeg  11.0621 -9.41201 -5.01772
LeftLeg  25.2692 -7.68809 -3.60848
LeftFoot  -11.9512 0.101821 5.61421
LeftToes  -7.20997e-011 3.75522e-011 -2.80735e-011
531
root  23.6161 38.4183 -62.9848 175.333 -40.2313 -170.341
RightUpLeg  -22.7857 2.86669 4.54155
RightLeg  16.4222 3.32526 0.915274
RightFoot  -1.00169 -0.92792 10.1549
RightToes  5.38607e-012 1.2921e-014 -6.02303e-014
Spine  -7.88279 -3.34424 6.80259
Spine1  8.95865 -4.11398 1.05158
HEad  14.9764 51.9563 -12.8272
LeftShoulder1  1.26209 -0.974087 -23.4848
LeftArm  1.68849 -3.94955 -60.7952
LeftForeArm  9.17397 -12.6497 -9.52309
LeftHand  -0.151385 1.43926 4.28918
RightShoulder  0.901731 -0.589874 27.0572
RightArm  -26.0481 -12.8261 39.0705
RightForeArm  59.6297 -4.38129 3.6602
RightHand  0.0940755 -6.18824 -15.9912
LeftUpLeg  7.98429 -5.7007 -1.03663
LeftLeg  34.4967 -11.2582 -7.86866
LeftFoot  -7.63604 0.0320925 0.427512
LeftToes  -7.20997e-011 3.75522e-011 -2.80735e-011
532
root  23.0409 38.2447 -63.7989 174.003 -41.2251 -168.576
RightUpLeg  -23.1301 0.783477 6.29807
RightLeg  20.5747 4.50392 1.70856
RightFoot  -2.71351 -0.605732 7.77216
RightToes  5.38607e-012 1.2921e-014 -6.02303e-014
Spine  -6.81483 -3.21688 9.25785
Spine1  8.46822 -3.97101 1.84005
HEad  15.1771 52.7101 -13.2834
LeftShoulder1  1.11918 -0.522052 -23.2171
LeftArm  -2.10503 -4.26609 -60.7513
LeftForeArm  5.07843 -12.4823 -9.15846
LeftHand  -0.159831 1.40051 4.50221
RightShoulder  1.09478 0.0571636 26.4399
RightArm  -27.459 -11.5572 39.6469
RightForeArm  60.5057 -5.29959 2.76162
RightHand  0.516919 -9.3225 -15.8893
LeftUpLeg  2.42799 -3.57597 3.51133
LeftLeg  44.4469 -12.6302 -12.5746
LeftFoot  -8.74022 0.946245 -38.0374
LeftToes  -7.20997e-011 3.75522e-011 -2.80735e-011
533
root  22.5312 38.1578 -64.5471 172.47 -42.6443 -166.939
RightUpLeg  -22.494 1.89539 7.36821
RightLeg  23.0511 1.97406 0.74318
RightFoot  -4.38074 -0.399377 6.06944
RightToes  5.38607e-012 1.2921e-014 -6.02303e-014
Spine  -5.94698 -3.09698 11.4247
Spine1  8.80554 -3.68136 2.36258
HEad  15.2905 52.7177 -12.8961
LeftShoulder1  1.15449 -0.736811 -22.4993
LeftArm  -4.19667 -5.49188 -60.5355
LeftForeArm  0.923772 -12.5935 -8.85098
LeftHand  -0.139019 2.5747 5.30492
RightShoulder  1.16247 0.219976 26.8883
RightArm  -27.636 -9.38279 39.6803
RightForeArm  61.8588 -5.44402 2.54999
RightHand  0.709744 -10.8408 -15.6197
LeftUpLeg  -3.16456 -3.24143 6.37663
LeftLeg  52.9463 -9.46579 -12.7532
LeftFoot  -7.10856 2.78514 -66.1092
LeftToes  -7.20997e-011 3.75522e-011 -2.80735e-011
534
root  21.95 38.1918 -65.349 171.608 -44.7411 -166.662
RightUpLeg  -20.9922 -0.792933 7.50252
RightLeg  24.8316 2.40608 1.07963
RightFoot  -6.89904 -0.24517 5.10685
RightToes  5.38607e-012 1.2921e-014 -6.02303e-014
Spine  -5.08033 -3.21361 11.9121
Spine1  8.39094 -3.66676 2.70923
HEad  16.131 52.2857 -11.8364
LeftShoulder1  1.17551 -0.81544 -22.4628
LeftArm  -5.27909 -7.00224 -59.4703
LeftForeArm  -0.0836417 -12.982 -8.50572
LeftHand  -0.125956 2.30305 4.37391
RightShoulder  1.2304 0.370709 27.4164
RightArm  -27.4143 -7.32292 39.7568
RightForeArm  62.0288 -5.44936 2.61697
RightHand  1.04724 -13.395 -15.5507
LeftUpLeg  -8.60925 -3.49452 6.99165
LeftLeg  59.8705 -5.60183 -9.80797
LeftFoot  -4.80796 4.66308 -70.9254
LeftToes  -7.20997e-011 3.75522e-011 -2.80735e-011
535
root  21.3209 38.2872 -66.1243 170.845 -47.4374 -166.845
RightUpLeg  -18.7313 -3.96382 6.86607
RightLeg  25.7701 2.8623 1.51302
RightFoot  -9.46981 -0.141887 4.74457
RightToes  5.38607e-012 1.2921e-014 -6.02303e-014
Spine  -4.55857 -3.45834 11.8306
Spine1  8.39567 -3.85665 3.16266
HEad  17.0254 51.4547 -11.1686
LeftShoulder1  1.08494 -0.485887 -22.5567
LeftArm  -6.69632 -9.27687 -58.8988
LeftForeArm  -0.572755 -12.55 -8.42898
LeftHand  -0.12233 2.05863 3.9599
RightShoulder  1.31575 0.654163 27.1834
RightArm  -27.5368 -5.85588 40.6101
RightForeArm  63.3467 -5.32283 2.5202
RightHand  0.329016 -7.80153 -16.6884
LeftUpLeg  -13.5404 -3.74948 6.59461
LeftLeg  64.7647 -3.78632 -8.10043
LeftFoot  -5.07235 3.42369 -56.9973
LeftToes  -7.20997e-011 3.75522e-011 -2.80735e-011
536
root  20.6556 38.531 -67.0256 170.958 -48.3833 -167.592
RightUpLeg  -15.7936 -4.69865 6.27622
RightLeg  24.7747 2.78251 1.59963
RightFoot  -10.894 -0.0896207 4.0143
RightToes  5.38607e-012 1.2921e-014 -6.02303e-014
Spine  -4.99004 -2.63114 11.6294
Spine1  8.6376 -3.0409 2.72917
HEad  18.0229 50.5855 -10.4884
LeftShoulder1  1.23571 -1.10629 -21.9166
LeftArm  -8.29814 -11.0751 -58.1302
LeftForeArm  -1.92335 -12.0507 -8.3044
LeftHand  -0.0756525 1.22999 1.95446
RightShoulder  1.35331 0.782997 27.057
RightArm  -26.6241 -4.70556 41.2064
RightForeArm  61.9939 -3.77422 3.26561
RightHand  0.111918 -6.32383 -15.9315
LeftUpLeg  -17.5062 -2.03762 5.98312
LeftLeg  66.1808 -2.43012 -5.35241
LeftFoot  -3.14701 2.88404 -38.5789
LeftToes  -7.20997e-011 3.75522e-011 -2.80735e-011
